<svg width="30" height="48" viewBox="0 0 30 48" fill="none" xmlns="http://www.w3.org/2000/svg">
<path d="M28.5 40.5C28.5 41.6968 27.4908 43.1842 24.9358 44.4617C22.4705 45.6943 18.9598 46.5 15 46.5C11.0402 46.5 7.52951 45.6943 5.06422 44.4617C2.50921 43.1842 1.5 41.6968 1.5 40.5C1.5 39.3032 2.50921 37.8158 5.06422 36.5383C7.52951 35.3057 11.0402 34.5 15 34.5C18.9598 34.5 22.4705 35.3057 24.9358 36.5383C27.4908 37.8158 28.5 39.3032 28.5 40.5Z" stroke="#152C5B" stroke-width="3"/>
<path d="M27.5 12.3077C27.5 15.4334 26.0076 22.1502 23.5151 28.1254C22.2757 31.0965 20.8326 33.7752 19.2844 35.6841C17.6963 37.6422 16.2398 38.5 15 38.5C13.7602 38.5 12.3037 37.6422 10.7156 35.6841C9.16736 33.7752 7.7243 31.0965 6.48488 28.1254C3.99239 22.1502 2.5 15.4334 2.5 12.3077C2.5 6.5145 7.90904 1.5 15 1.5C22.091 1.5 27.5 6.5145 27.5 12.3077Z" fill="white" stroke="#152C5B" stroke-width="3"/>
<path d="M20 12.2727C20 15.1308 17.7404 17.4091 15 17.4091C12.2596 17.4091 10 15.1308 10 12.2727C10 9.41469 12.2596 7.13637 15 7.13637C17.7404 7.13637 20 9.41469 20 12.2727Z" stroke="#FF498B" stroke-width="2"/>
</svg>
