<svg width="48" height="48" viewBox="0 0 48 48" fill="none" xmlns="http://www.w3.org/2000/svg">
<rect width="48" height="48" fill="white"/>
<mask id="path-1-inside-1" fill="white">
<path fill-rule="evenodd" clip-rule="evenodd" d="M17.6458 7C16.7525 7 15.9674 7.59248 15.7225 8.45161L14.7107 12H5C2.23858 12 0 14.2386 0 17V36C0 38.7614 2.23858 41 5 41H43C45.7614 41 48 38.7614 48 36V17C48 14.2386 45.7614 12 43 12H34.2893L33.2775 8.45161C33.0326 7.59248 32.2475 7 31.3542 7H17.6458Z"/>
</mask>
<path d="M15.7225 8.45161L12.8375 7.62902V7.62902L15.7225 8.45161ZM14.7107 12V15H16.9749L17.5958 12.8226L14.7107 12ZM34.2893 12L31.4042 12.8226L32.0251 15H34.2893V12ZM33.2775 8.45161L30.3925 9.27419V9.2742L33.2775 8.45161ZM18.6075 9.2742C18.485 9.70376 18.0925 10 17.6458 10V4C15.4124 4 13.4498 5.48121 12.8375 7.62902L18.6075 9.2742ZM17.5958 12.8226L18.6075 9.2742L12.8375 7.62902L11.8257 11.1774L17.5958 12.8226ZM5 15H14.7107V9H5V15ZM3 17C3 15.8954 3.89543 15 5 15V9C0.581723 9 -3 12.5817 -3 17H3ZM3 36V17H-3V36H3ZM5 38C3.89543 38 3 37.1046 3 36H-3C-3 40.4183 0.581724 44 5 44V38ZM43 38H5V44H43V38ZM45 36C45 37.1046 44.1046 38 43 38V44C47.4183 44 51 40.4183 51 36H45ZM45 17V36H51V17H45ZM43 15C44.1046 15 45 15.8954 45 17H51C51 12.5817 47.4183 9 43 9V15ZM34.2893 15H43V9H34.2893V15ZM30.3925 9.2742L31.4042 12.8226L37.1743 11.1774L36.1625 7.62902L30.3925 9.2742ZM31.3542 10C30.9075 10 30.515 9.70376 30.3925 9.27419L36.1625 7.62902C35.5502 5.48121 33.5876 4 31.3542 4V10ZM17.6458 10H31.3542V4H17.6458V10Z" fill="#152C5B" mask="url(#path-1-inside-1)"/>
<circle cx="24.5" cy="26.5" r="6.5" stroke="#FF498B" stroke-width="2"/>
<path d="M33 19L40 19" stroke="#152C5B" stroke-width="2" stroke-linecap="round"/>
</svg>
